# xmcd CD database file
#
# Track frame offsets:
#	150
#	11235
#	34080
#	56517
#	83961
#	99158
#	127462
#	137654
#	154671
#	189483
#	200385
#	265862
#	290782
#
# Disc length: 4335 seconds
#
# Revision: 0
# Processed by: cddbd v1.4PL0 Copyright (c) Steve Scherf et al.
# Submitted via: CDex 1.50beta9
#
DISCID=bc10ed0d
DTITLE=Wolfgang Muthspiel - Work in progress 89-98
DYEAR=1998
DGENRE=Jazz
TTITLE0=Everything happens to that dog
TTITLE1=Dance
TTITLE2=Duet
TTITLE3=Shorter
TTITLE4=Laws of perspective
TTITLE5=Because
TTITLE6=Miles
TTITLE7=Falling grace
TTITLE8=Take it and run
TTITLE9=Jodler
TTITLE10=All my loving
TTITLE11=Transit - Part 1
TTITLE12=Transit - Part 2
EXTD=YEAR: 1998
EXTT0=
EXTT1=
EXTT2=
EXTT3=
EXTT4=
EXTT5=
EXTT6=
EXTT7=
EXTT8=
EXTT9=
EXTT10=
EXTT11=
EXTT12=
PLAYORDER=
